<?xml version="1.0" standalone="no"?>
<!DOCTYPE svg PUBLIC "-//W3C//DTD SVG 20010904//EN"
 "http://www.w3.org/TR/2001/REC-SVG-20010904/DTD/svg10.dtd">
<svg version="1.0" xmlns="http://www.w3.org/2000/svg"
 width="700.000000pt" height="700.000000pt" viewBox="0 0 700.000000 700.000000"
 preserveAspectRatio="xMidYMid meet">
<metadata>
Created by potrace 1.11, written by Peter Selinger 2001-2013
</metadata>
<g transform="translate(0.000000,700.000000) scale(0.100000,-0.100000)"
fill="#000000" stroke="none">
<path d="M3548 6505 c-2 -1 -52 -5 -113 -9 -127 -7 -149 -10 -315 -42 -66 -13
-225 -60 -315 -94 -640 -240 -1162 -780 -1402 -1450 -32 -90 -76 -236 -87
-290 -26 -127 -38 -202 -50 -305 -15 -131 -18 -409 -5 -520 14 -131 19 -170
24 -185 2 -8 7 -35 10 -60 14 -103 97 -389 141 -487 13 -28 24 -55 24 -58 0
-14 124 -251 171 -327 167 -269 416 -535 659 -704 347 -242 738 -383 1140
-410 187 -13 428 -1 540 26 19 5 52 11 72 14 37 6 173 40 218 56 91 31 185 68
248 97 41 18 75 33 77 33 3 0 48 25 102 56 419 241 745 587 971 1029 66 129
163 386 186 495 70 319 81 407 81 660 0 206 -8 294 -41 480 -104 582 -429
1128 -894 1501 -36 29 -83 64 -105 78 -22 14 -42 28 -45 31 -18 20 -181 111
-292 164 -199 95 -381 153 -583 187 -33 5 -70 12 -83 14 -49 8 -328 25 -334
20z m-411 -361 c95 -45 140 -126 94 -168 -11 -10 -91 -53 -178 -96 -307 -151
-490 -275 -677 -458 -250 -245 -421 -557 -527 -963 -18 -68 -38 -130 -45 -138
-11 -12 -26 -9 -101 24 -97 42 -114 56 -107 88 2 12 6 36 9 52 3 17 8 41 10
55 3 14 7 36 10 50 11 59 48 197 69 263 152 461 395 772 834 1066 101 68 409
246 439 254 35 9 118 -5 170 -29z m-1461 -2013 l99 -39 -1 -43 c-1 -24 -5 -87
-9 -139 -4 -52 -8 -127 -9 -167 -1 -40 -5 -75 -8 -78 -7 -7 -128 39 -168 63
-68 42 -68 41 -54 159 7 60 15 140 19 178 6 60 11 91 14 103 2 6 24 -1 117
-37z"/>
<path d="M1363 3062 c-8 -31 -9 -105 -3 -297 3 -86 7 -99 80 -285 106 -268
155 -366 272 -543 115 -176 287 -370 439 -499 l67 -56 -42 -29 c-22 -17 -99
-70 -171 -118 -71 -49 -177 -121 -235 -160 -58 -39 -168 -114 -244 -166 l-140
-94 40 -7 c21 -4 59 -10 84 -14 25 -3 54 -8 65 -10 11 -3 36 -7 55 -10 19 -3
46 -7 60 -10 14 -2 79 -13 145 -24 66 -11 136 -22 155 -25 113 -19 293 -48
400 -65 36 -6 81 -13 100 -16 33 -5 179 -29 245 -40 56 -10 350 -53 405 -59
30 -4 69 -9 85 -11 151 -18 288 -27 438 -26 126 0 178 3 317 18 61 7 259 33
290 39 14 2 68 11 120 20 52 8 106 17 120 20 14 3 66 12 115 21 50 8 101 17
115 20 14 2 41 7 60 10 19 3 46 7 60 10 14 2 77 13 140 24 63 11 126 22 140
24 14 3 41 7 60 10 19 3 73 12 120 20 47 8 103 17 125 21 22 3 47 7 55 10 8 2
33 6 55 10 22 3 65 10 95 15 30 5 73 12 95 16 22 3 41 7 42 8 3 2 -144 103
-613 420 -193 131 -204 140 -187 155 10 9 43 37 73 63 299 254 530 594 663
978 l40 115 4 193 c4 136 2 192 -6 192 -19 0 -66 -75 -151 -242 -133 -261
-259 -438 -445 -623 -180 -180 -366 -316 -586 -428 -163 -83 -351 -153 -464
-173 -22 -3 -47 -10 -55 -14 -8 -5 -40 -11 -70 -15 -30 -4 -57 -8 -60 -10 -3
-1 -32 -6 -65 -10 -230 -27 -466 -19 -680 22 -44 8 -89 17 -101 19 -12 2 -65
17 -119 34 -367 113 -681 303 -950 575 -249 251 -404 494 -565 883 -23 57 -51
113 -60 125 l-18 22 -9 -33z"/>
</g>
</svg>
